<svg width="43" height="53" viewBox="0 0 43 53" fill="none" xmlns="http://www.w3.org/2000/svg">
<path d="M19.9239 2.47296C19.3464 1.86769 18.3971 1.83603 17.8038 2.40223L8.13458 11.6291C7.54123 12.1953 7.52844 13.1449 8.10601 13.7502C8.68358 14.3554 9.6328 14.3871 10.2262 13.8209L18.821 5.61929L27.1873 14.3867C27.7648 14.992 28.7141 15.0236 29.3074 14.4574C29.9008 13.8912 29.9136 12.9415 29.336 12.3363L19.9239 2.47296ZM19.6889 52.5344L20.3487 3.54817L17.3504 3.44815L16.6905 52.4344L19.6889 52.5344Z" fill="black"/>
<path d="M32.6709 38.0821L31.075 38.0612L26.2293 30.7324L26.2734 37.9983L24.6776 37.9774L24.6184 28.2336L26.2143 28.2545L31.0599 35.5692L31.0159 28.3174L32.6117 28.3383L32.6709 38.0821Z" fill="#1B1B1B"/>
</svg>
