<svg width="66" height="82" viewBox="0 0 66 82" fill="none" xmlns="http://www.w3.org/2000/svg">
<path d="M37.0485 77.7628C37.6343 78.3486 38.584 78.3486 39.1698 77.7628L48.7157 68.2169C49.3015 67.6311 49.3015 66.6814 48.7157 66.0956C48.1299 65.5098 47.1802 65.5098 46.5944 66.0956L38.1091 74.5809L29.6239 66.0956C29.0381 65.5098 28.0883 65.5098 27.5025 66.0956C26.9167 66.6814 26.9167 67.6311 27.5025 68.2169L37.0485 77.7628ZM36.6091 0.0141602L36.6091 76.7022L39.6091 76.7022L39.6091 0.0141602L36.6091 0.0141602Z" fill="black"/>
<path d="M25.1018 43.572C25.1018 44.0667 24.9851 44.5333 24.7518 44.972C24.5185 45.4107 24.1451 45.77 23.6318 46.05C23.1185 46.3207 22.4605 46.456 21.6578 46.456L19.8938 46.456L19.8938 50.404L18.2978 50.404L18.2978 40.674L21.6578 40.674C22.4045 40.674 23.0345 40.8047 23.5478 41.066C24.0705 41.318 24.4578 41.6633 24.7098 42.102C24.9711 42.5407 25.1018 43.0307 25.1018 43.572ZM21.6578 45.154C22.2645 45.154 22.7171 45.0187 23.0158 44.748C23.3145 44.468 23.4638 44.076 23.4638 43.572C23.4638 42.508 22.8618 41.976 21.6578 41.976L19.8938 41.976L19.8938 45.154L21.6578 45.154ZM29.571 46.547L27.205 52.217L26.379 52.217L27.163 50.341L25.644 46.547L26.533 46.547L27.618 49.487L28.745 46.547L29.571 46.547Z" fill="#1B1B1B"/>
</svg>
