<svg width="81" height="58" viewBox="0 0 81 58" fill="none" xmlns="http://www.w3.org/2000/svg">
<path d="M80.0318 30.649C80.6218 30.0674 80.6287 29.1177 80.0471 28.5277L70.5701 18.9134C69.9885 18.3234 69.0388 18.3166 68.4488 18.8981C67.8588 19.4797 67.852 20.4294 68.4335 21.0194L76.8576 29.5655L68.3115 37.9895C67.7215 38.5711 67.7147 39.5208 68.2962 40.1108C68.8778 40.7008 69.8275 40.7076 70.4175 40.126L80.0318 30.649ZM0.53096 30.5166L78.968 31.0807L78.9896 28.0808L0.552536 27.5166L0.53096 30.5166Z" fill="black"/>
<path d="M56.3933 17.7372C56.3933 18.2318 56.2766 18.6985 56.0433 19.1372C55.81 19.5758 55.4366 19.9352 54.9233 20.2152C54.41 20.4858 53.752 20.6212 52.9493 20.6212L51.1853 20.6212L51.1853 24.5692L49.5893 24.5692L49.5893 14.8392L52.9493 14.8392C53.696 14.8392 54.326 14.9698 54.8393 15.2312C55.362 15.4832 55.7493 15.8285 56.0013 16.2672C56.2626 16.7058 56.3933 17.1958 56.3933 17.7372ZM52.9493 19.3192C53.556 19.3192 54.0086 19.1838 54.3073 18.9132C54.606 18.6332 54.7553 18.2412 54.7553 17.7372C54.7553 16.6732 54.1533 16.1412 52.9493 16.1412L51.1853 16.1412L51.1853 19.3192L52.9493 19.3192ZM59.0425 22.6162L60.2885 24.5692L59.3855 24.5692L58.5525 23.2602L57.7685 24.5692L56.9355 24.5692L58.1815 22.6722L56.9355 20.7122L57.8385 20.7122L58.6715 22.0212L59.4555 20.7122L60.2885 20.7122L59.0425 22.6162Z" fill="#1B1B1B"/>
</svg>
