<svg width="53" height="85" viewBox="0 0 53 85" fill="none" xmlns="http://www.w3.org/2000/svg">
<path d="M31.5925 83.8907C32.3549 84.2161 33.2364 83.8627 33.5615 83.1013L38.8577 70.6938C39.1827 69.9324 38.8281 69.0513 38.0657 68.7259C37.3032 68.4004 36.4217 68.7538 36.0967 69.5152L31.3889 80.5441L20.3447 75.8298C19.5822 75.5044 18.7007 75.8578 18.3757 76.6191C18.0506 77.3805 18.4053 78.2616 19.1677 78.587L31.5925 83.8907ZM0.908487 8.83115L30.7886 83.0702L33.5732 81.9539L3.69308 7.71487L0.908487 8.83115Z" fill="black"/>
<path d="M35.2357 43.6655C35.2387 44.1602 35.1248 44.6253 34.8942 45.0609C34.6635 45.4965 34.2924 45.851 33.7808 46.1242C33.2692 46.3882 32.6121 46.5149 31.8095 46.5044L30.0456 46.4813L30.0696 50.4292L28.4737 50.4083L28.4147 40.6785L31.7744 40.7225C32.521 40.7323 33.1517 40.8712 33.6666 41.1392C34.1907 41.3981 34.5801 41.7485 34.8348 42.1904C35.0988 42.6325 35.2324 43.1242 35.2357 43.6655ZM31.8016 45.2024C32.4082 45.2103 32.86 45.0809 33.157 44.8142C33.4539 44.5381 33.6009 44.1481 33.5978 43.6441C33.5914 42.5801 32.9862 42.0402 31.7823 42.0245L30.0184 42.0014L30.0377 45.1793L31.8016 45.2024Z" fill="#1B1B1B"/>
</svg>
