<svg width="45" height="45" viewBox="0 0 45 45" fill="none" xmlns="http://www.w3.org/2000/svg">
<path fill-rule="evenodd" clip-rule="evenodd" d="M22.4235 30.5935C19.2577 30.5935 17.0451 29.1042 15.7516 27.7085H15.7686C15.0027 26.8745 13.7176 26.8235 12.8836 27.5894C12.0497 28.3553 11.9986 29.6488 12.7645 30.4743C14.6282 32.5082 17.8706 34.6783 22.432 34.6783C26.9935 34.6783 30.2273 32.4997 32.0995 30.4743C32.8655 29.6488 32.8059 28.3553 31.9804 27.5894C31.1549 26.8235 29.8614 26.883 29.0955 27.7085C27.8019 29.1042 25.5893 30.5935 22.4235 30.5935ZM13.7238 16.4132C13.2131 16.9239 12.9262 17.6166 12.9262 18.3388C12.9262 19.0611 13.2131 19.7538 13.7238 20.2645C14.2345 20.7752 14.9272 21.0621 15.6494 21.0621C16.3717 21.0621 17.0644 20.7752 17.5751 20.2645C18.0858 19.7538 18.3727 19.0611 18.3727 18.3388C18.3727 17.6166 18.0858 16.9239 17.5751 16.4132C17.0644 15.9025 16.3717 15.6156 15.6494 15.6156C14.9272 15.6156 14.2345 15.9025 13.7238 16.4132ZM31.1913 16.4132C30.6806 15.9025 29.9879 15.6156 29.2657 15.6156C28.5434 15.6156 27.8508 15.9025 27.34 16.4132C26.8293 16.9239 26.5424 17.6166 26.5424 18.3388C26.5424 19.0611 26.8293 19.7538 27.34 20.2645C27.8508 20.7752 28.5434 21.0621 29.2657 21.0621C29.9879 21.0621 30.6806 20.7752 31.1913 20.2645C31.702 19.7538 31.9889 19.0611 31.9889 18.3388C31.9889 17.6166 31.702 16.9239 31.1913 16.4132Z" fill="#935C0B"/>
</svg>
