<svg width="18" height="21" viewBox="0 0 18 21" fill="none" xmlns="http://www.w3.org/2000/svg">
<g clip-path="url(#clip0_4_562)">
<path d="M16.125 1.40164H2.375C1.33984 1.40164 0.5 2.24149 0.5 3.27664V17.0266C0.5 18.0618 1.33984 18.9016 2.375 18.9016H16.125C17.1602 18.9016 18 18.0618 18 17.0266V3.27664C18 2.24149 17.1602 1.40164 16.125 1.40164ZM11.332 16.3899C11.0039 16.4485 10.8828 16.2454 10.8828 16.0774C10.8828 15.8665 10.8906 14.7884 10.8906 13.9173C10.8906 13.3079 10.6875 12.9212 10.4492 12.718C11.8945 12.5579 13.418 12.3587 13.418 9.86258C13.418 9.15164 13.1641 8.79617 12.75 8.33914C12.8164 8.17117 13.0391 7.47977 12.6836 6.58133C12.1406 6.41336 10.8984 7.28055 10.8984 7.28055C10.3828 7.13602 9.82422 7.0618 9.27344 7.0618C8.72266 7.0618 8.16406 7.13602 7.64844 7.28055C7.64844 7.28055 6.40625 6.41336 5.86328 6.58133C5.50781 7.47586 5.72656 8.16727 5.79688 8.33914C5.38281 8.79617 5.1875 9.15164 5.1875 9.86258C5.1875 12.347 6.64453 12.5579 8.08984 12.718C7.90234 12.886 7.73438 13.1751 7.67578 13.5891C7.30469 13.7571 6.35547 14.0462 5.78906 13.0462C5.43359 12.429 4.79297 12.3782 4.79297 12.3782C4.16016 12.3704 4.75 12.7766 4.75 12.7766C5.17188 12.972 5.46875 13.722 5.46875 13.722C5.84766 14.8821 7.66016 14.4915 7.66016 14.4915C7.66016 15.0345 7.66797 15.9173 7.66797 16.0774C7.66797 16.2454 7.55078 16.4485 7.21875 16.3899C4.64062 15.5266 2.83594 13.0735 2.83594 10.2063C2.83594 6.62039 5.57812 3.89774 9.16406 3.89774C12.75 3.89774 15.6562 6.62039 15.6562 10.2063C15.6602 13.0735 13.9102 15.5305 11.332 16.3899ZM7.5 14.0032C7.42578 14.0188 7.35547 13.9876 7.34766 13.9368C7.33984 13.8782 7.39062 13.8274 7.46484 13.8118C7.53906 13.804 7.60938 13.8352 7.61719 13.886C7.62891 13.9368 7.57812 13.9876 7.5 14.0032ZM7.12891 13.968C7.12891 14.0188 7.07031 14.0618 6.99219 14.0618C6.90625 14.0696 6.84766 14.0266 6.84766 13.968C6.84766 13.9173 6.90625 13.8743 6.98438 13.8743C7.05859 13.8665 7.12891 13.9095 7.12891 13.968ZM6.59375 13.9251C6.57812 13.9759 6.5 13.9993 6.43359 13.9759C6.35938 13.9602 6.30859 13.9016 6.32422 13.8509C6.33984 13.8001 6.41797 13.7766 6.48438 13.7923C6.5625 13.8157 6.61328 13.8743 6.59375 13.9251ZM6.11328 13.7141C6.07812 13.7571 6.00391 13.7493 5.94531 13.6907C5.88672 13.6399 5.87109 13.5657 5.91016 13.5305C5.94531 13.4876 6.01953 13.4954 6.07812 13.554C6.12891 13.6048 6.14844 13.6829 6.11328 13.7141ZM5.75781 13.3587C5.72266 13.3821 5.65625 13.3587 5.61328 13.3001C5.57031 13.2415 5.57031 13.1751 5.61328 13.1477C5.65625 13.1126 5.72266 13.1399 5.75781 13.1985C5.80078 13.2571 5.80078 13.3274 5.75781 13.3587ZM5.50391 12.9798C5.46875 13.0149 5.41016 12.9954 5.36719 12.9563C5.32422 12.9055 5.31641 12.847 5.35156 12.8196C5.38672 12.7845 5.44531 12.804 5.48828 12.843C5.53125 12.8938 5.53906 12.9524 5.50391 12.9798ZM5.24219 12.6907C5.22656 12.7259 5.17578 12.7337 5.13281 12.7063C5.08203 12.6829 5.05859 12.6399 5.07422 12.6048C5.08984 12.5813 5.13281 12.5696 5.18359 12.5891C5.23438 12.6165 5.25781 12.6595 5.24219 12.6907Z" fill="#FAFAFA"/>
</g>
<defs>
<clipPath id="clip0_4_562">
<rect width="17.5" height="20" fill="white" transform="translate(0.5 0.151642)"/>
</clipPath>
</defs>
</svg>
