<svg width="18" height="21" viewBox="0 0 18 21" fill="none" xmlns="http://www.w3.org/2000/svg">
<g clip-path="url(#clip0_4_560)">
<path d="M16.25 1.40164H1.24609C0.558594 1.40164 0 1.96805 0 2.66336V17.6399C0 18.3352 0.558594 18.9016 1.24609 18.9016H16.25C16.9375 18.9016 17.5 18.3352 17.5 17.6399V2.66336C17.5 1.96805 16.9375 1.40164 16.25 1.40164ZM5.28906 16.4016H2.69531V8.05008H5.29297V16.4016H5.28906ZM3.99219 6.90945C3.16016 6.90945 2.48828 6.23367 2.48828 5.40555C2.48828 4.57742 3.16016 3.90164 3.99219 3.90164C4.82031 3.90164 5.49609 4.57742 5.49609 5.40555C5.49609 6.23758 4.82422 6.90945 3.99219 6.90945ZM15.0117 16.4016H12.418V12.3391C12.418 11.3704 12.3984 10.1243 11.0703 10.1243C9.71875 10.1243 9.51172 11.179 9.51172 12.2688V16.4016H6.91797V8.05008H9.40625V9.1907H9.44141C9.78906 8.53445 10.6367 7.84305 11.8984 7.84305C14.5234 7.84305 15.0117 9.57352 15.0117 11.8235V16.4016Z" fill="#FAFAFA"/>
</g>
<defs>
<clipPath id="clip0_4_560">
<rect width="17.5" height="20" fill="white" transform="translate(0 0.151642)"/>
</clipPath>
</defs>
</svg>
