<svg width="23" height="23" viewBox="0 0 23 23" fill="none" xmlns="http://www.w3.org/2000/svg">
<path d="M3.83331 7.18749V2.87499C3.83331 2.62083 3.93428 2.37707 4.114 2.19735C4.29372 2.01763 4.53748 1.91666 4.79165 1.91666H18.2083C18.4625 1.91666 18.7062 2.01763 18.886 2.19735C19.0657 2.37707 19.1666 2.62083 19.1666 2.87499V20.125C19.1666 20.3792 19.0657 20.6229 18.886 20.8026C18.7062 20.9824 18.4625 21.0833 18.2083 21.0833H4.79165C4.53748 21.0833 4.29372 20.9824 4.114 20.8026C3.93428 20.6229 3.83331 20.3792 3.83331 20.125V15.8125" stroke="#F6A730" stroke-width="1.5" stroke-linecap="round" stroke-linejoin="round"/>
<path d="M14.8542 7.18749H16.2917M13.4167 11.0208H16.2917M13.4167 14.8542H16.2917" stroke="#F6A730" stroke-width="1.5" stroke-linecap="round"/>
<path d="M4.79166 10.0625L7.66666 12.9375M7.66666 10.0625L4.79166 12.9375M1.91666 7.18749H10.5417V15.8125H1.91666V7.18749Z" stroke="#F6A730" stroke-width="1.5" stroke-linecap="round" stroke-linejoin="round"/>
</svg>
